<svg viewBox="0 0 200 200" fill="none" xmlns="http://www.w3.org/2000/svg">
  <defs>
    <linearGradient id="bg" x1="0%" y1="0%" x2="100%" y2="100%">
      <stop offset="0%" stop-color="#a86c2d"/>
      <stop offset="100%" stop-color="#8c5525"/>
    </linearGradient>
  </defs>
  <rect width="200" height="200" rx="44" fill="url(#bg)"/>
  <path d="M100 36 L152 78 L152 158 Q152 168 142 168 L58 168 Q48 168 48 158 L48 78 Z" fill="none" stroke="white" stroke-width="4" stroke-linejoin="round" opacity="0.9"/>
  <path d="M100 36 L152 78 L100 78 Z" fill="white" opacity="0.15"/>
  <path d="M100 36 L152 78 L100 78 Z" fill="none" stroke="white" stroke-width="4" stroke-linejoin="round" opacity="0.9"/>
  <rect x="82" y="126" width="36" height="42" rx="5" fill="none" stroke="white" stroke-width="4" opacity="0.9"/>
  <line x1="100" y1="126" x2="100" y2="168" stroke="white" stroke-width="3" opacity="0.4"/>
  <rect x="62" y="94" width="24" height="18" rx="3" fill="none" stroke="white" stroke-width="3" opacity="0.5"/>
  <rect x="114" y="94" width="24" height="18" rx="3" fill="none" stroke="white" stroke-width="3" opacity="0.5"/>
  <line x1="56" y1="168" x2="144" y2="168" stroke="white" stroke-width="4" stroke-linecap="round" opacity="0.3"/>
</svg>
