<svg viewBox="0 0 64 64" fill="none" xmlns="http://www.w3.org/2000/svg">
  <defs>
    <mask id="shell-cut">
      <rect width="64" height="64" fill="white" />
      <path
        d="M 32.45 32.11 L 32.57 32.19 L 32.69 32.30 L 32.79 32.41 L 32.88 32.55 L 32.95 32.70 L 33.00 32.87 L 33.03 33.05 L 33.04 33.23 L 33.02 33.43 L 32.98 33.62 L 32.92 33.82 L 32.83 34.02 L 32.72 34.22 L 32.57 34.40 L 32.41 34.58 L 32.22 34.75 L 32.01 34.90 L 31.77 35.04 L 31.51 35.15 L 31.24 35.24 L 30.94 35.31 L 30.64 35.35 L 30.32 35.37 L 29.99 35.35 L 29.65 35.30 L 29.31 35.22 L 28.97 35.10 L 28.63 34.95 L 28.30 34.77 L 27.97 34.55 L 27.66 34.30 L 27.36 34.01 L 27.08 33.69 L 26.83 33.34 L 26.60 32.96 L 26.40 32.55 L 26.23 32.12 L 26.09 31.67 L 25.99 31.19 L 25.93 30.70 L 25.92 30.19 L 25.94 29.67 L 26.01 29.15 L 26.12 28.62 L 26.29 28.09 L 26.49 27.57 L 26.75 27.06 L 27.05 26.56 L 27.40 26.08 L 27.79 25.62 L 28.23 25.19 L 28.71 24.79 L 29.23 24.42 L 29.79 24.09 L 30.38 23.80 L 31.00 23.56 L 31.65 23.36 L 32.33 23.22 L 33.02 23.13 L 33.74 23.09 L 34.46 23.12 L 35.19 23.20 L 35.92 23.34 L 36.65 23.55 L 37.37 23.81 L 38.08 24.14 L 38.76 24.53 L 39.43 24.98 L 40.06 25.48 L 40.66 26.04 L 41.22 26.66 L 41.73 27.33 L 42.20 28.05 L 42.61 28.81 L 42.97 29.61 L 43.26 30.45 L 43.49 31.32 L 43.66 32.21 L 43.75 33.13 L 43.77 34.06 L 43.71 35.00 L 43.58 35.95 L 43.37 36.89 L 43.08 37.82 L 42.72 38.74 L 42.28 39.64 L 41.77 40.50 L 41.18 41.34 L 40.52 42.13 L 39.79 42.88 L 39.00 43.57 L 38.15 44.21 L 37.24 44.78 L 36.27 45.28 L 35.26 45.71 L 34.21 46.07 L 33.13 46.34 L 32.01 46.53 L 30.88 46.63 L 29.72 46.64 L 28.56 46.56 L 27.40 46.39 L 26.25 46.12 L 25.11 45.76 L 23.99 45.31 L 22.90 44.76 L 21.84 44.13 L 20.83 43.41 L 19.87 42.60 L 18.97 41.71 L 18.14 40.75 L 17.37 39.72 L 16.69 38.62 L 16.09 37.46 L 15.57 36.24 L 15.15 34.98 L 14.83 33.68 L 14.60 32.35 L 14.49 30.99 L 14.48 29.62 L 14.57 28.24 L 14.78 26.86 L 15.10 25.49 L 15.52 24.13 L 16.06 22.81 L 16.70 21.52 L 17.44 20.27 L 18.29 19.08 L 19.24 17.95 L 20.28 16.89 L 21.40 15.91 L 22.61 15.01 L 23.90 14.21 L 25.25 13.50 L 26.67 12.89 L 28.14 12.39 L 29.65 12.01 L 31.20 11.75 L 32.78 11.60 L 34.38 11.58 L 35.98 11.69 L 37.58 11.92 L 39.17 12.28 L 40.74 12.76 L 42.27 13.37 L 43.76 14.10 L 45.20 14.95 L 46.58 15.92 L 47.89 17.00 L 49.11 18.19 L 50.25 19.47 L 51.29 20.85 L 52.23 22.32 L 53.05 23.87 L 53.75 25.48 L 54.33 27.16 L 54.78 28.88 L 55.10 30.65 L 55.28 32.45 L 55.32 34.26 L 55.21 36.09 L 54.97 37.91 L 54.57 39.72 L 54.04 41.50 L 53.36 43.25 L 52.55 44.95 L 51.60 46.59 L 50.52 48.16 L 49.31 49.65 L 47.98 51.04 L 46.54 52.34 L 45.00 53.53 L 43.35 54.60 L 41.62 55.55 L 39.81 56.36 L 37.93 57.03 L 36.00 57.56 L 34.02 57.93 L 32.00 58.15"
        fill="none"
        stroke="black"
        stroke-width="2.75"
        stroke-linecap="round"
        stroke-linejoin="round"
      />
      <g fill="none" stroke="black" stroke-width="1.8" stroke-linecap="round">
        <path d="M 32.92 33.81 Q 34.11 47.78 44.70 56.95" />
        <path d="M 31.91 34.96 Q 26.35 47.32 31.18 59.99" />
        <path d="M 30.04 35.35 Q 19.52 43.17 17.86 56.17" />
        <path d="M 27.88 34.48 Q 15.34 36.13 8.01 46.43" />
        <path d="M 26.27 32.24 Q 14.94 27.72 4.02 33.16" />
        <path d="M 26.03 29.05 Q 18.63 19.93 6.89 19.61" />
        <path d="M 27.64 25.79 Q 25.73 14.66 15.90 9.09" />
        <path d="M 31.05 23.54 Q 34.68 13.33 28.86 4.18" />
        <path d="M 35.57 23.26 Q 43.41 16.44 42.58 6.08" />
        <path d="M 40.03 25.46 Q 49.79 23.47 53.72 14.32" />
        <path d="M 43.10 29.94 Q 52.14 32.88 59.53 26.90" />
        <path d="M 43.60 35.80 Q 49.71 42.50 58.61 40.72" />
        <path d="M 40.99 41.58 Q 42.88 50.00 51.17 52.41" />
        <path d="M 35.53 45.61 Q 33.11 53.44 39.04 59.10" />
        <path d="M 28.35 46.53 Q 22.65 51.81 25.18 59.16" />
        <path d="M 21.20 43.68 Q 14.04 45.30 13.00 52.56" />
        <path d="M 16.05 37.37 Q 9.45 35.27 5.46 40.93" />
        <path d="M 14.51 28.90 Q 10.17 24.05 4.43 27.12" />
        <path d="M 17.42 20.32 Q 16.25 14.33 10.14 14.50" />
        <path d="M 24.44 13.90 Q 26.40 8.54 21.21 6.16" />
        <path d="M 34.14 11.58 Q 38.31 8.26 34.92 4.15" />
        <path d="M 44.20 14.34 Q 49.12 13.77 47.91 8.96" />
        <path d="M 51.99 21.93 Q 56.14 23.93 57.01 19.41" />
        <path d="M 55.30 32.78 Q 57.52 36.44 59.98 32.94" />
        <path d="M 52.87 44.33 Q 52.71 48.30 56.11 46.24" />
        <path d="M 44.87 53.62 Q 42.66 56.59 46.33 56.06" />
      </g>
    </mask>
  </defs>
  <circle cx="32" cy="32" r="28" fill="black" mask="url(#shell-cut)" />
  <circle cx="32" cy="32" r="1.8" fill="black" />
</svg>
